<svg id="svg" version="1.1" xmlns="http://www.w3.org/2000/svg" xmlns:xlink="http://www.w3.org/1999/xlink" width="400" height="400" viewBox="0, 0, 400,400"><g id="svgg"><path id="path0" d="M186.577 20.194 C 186.534 20.236,185.935 20.371,185.245 20.492 C 182.271 21.016,180.080 22.775,178.525 25.886 L 177.362 28.214 177.353 74.718 C 177.349 100.296,177.276 121.291,177.192 121.375 C 177.059 121.508,155.043 121.712,108.008 122.015 C 92.338 122.115,91.841 122.193,89.063 124.989 C 86.133 127.937,86.085 128.258,86.187 144.326 C 86.294 161.096,86.350 161.412,89.740 164.434 C 92.584 166.969,93.025 167.028,108.398 166.941 C 115.273 166.902,133.555 166.810,149.023 166.736 L 177.148 166.602 177.247 231.738 C 177.313 275.095,177.215 296.875,176.954 296.875 C 176.739 296.875,176.562 296.655,176.562 296.387 C 176.562 296.118,176.005 294.756,175.323 293.359 C 174.642 291.963,174.066 290.732,174.044 290.625 C 173.974 290.291,171.423 285.374,171.105 284.961 C 170.940 284.746,170.594 283.916,170.337 283.117 C 170.079 282.317,169.455 280.911,168.950 279.992 C 167.724 277.760,166.391 275.068,164.650 271.303 C 163.858 269.592,162.249 266.213,161.073 263.795 C 159.897 261.377,158.990 259.324,159.057 259.233 C 159.125 259.141,158.886 258.740,158.527 258.342 C 158.167 257.943,157.753 257.134,157.605 256.543 C 157.458 255.952,157.180 255.469,156.989 255.469 C 156.797 255.469,156.641 255.231,156.641 254.941 C 156.641 254.651,156.206 253.596,155.675 252.597 C 155.144 251.598,154.778 250.781,154.861 250.781 C 154.945 250.781,154.603 250.034,154.101 249.121 C 152.954 247.034,151.572 244.230,150.203 241.211 C 149.619 239.922,148.236 237.021,147.130 234.766 C 146.024 232.510,145.105 230.576,145.086 230.469 C 144.991 229.907,143.254 226.334,142.643 225.443 C 142.254 224.877,141.630 223.586,141.254 222.574 C 140.879 221.562,139.455 218.546,138.089 215.871 C 136.724 213.197,135.710 210.905,135.837 210.778 C 135.964 210.651,135.863 210.547,135.612 210.547 C 135.361 210.547,135.192 210.415,135.237 210.254 C 135.322 209.944,134.147 207.595,133.546 206.873 C 133.350 206.638,132.339 205.303,131.299 203.906 C 129.662 201.707,128.589 200.573,124.555 196.777 C 124.155 196.401,123.666 196.094,123.467 196.094 C 123.269 196.094,122.610 195.682,122.003 195.180 C 118.272 192.092,110.236 189.157,103.320 188.357 C 98.937 187.850,85.780 188.240,84.698 188.909 C 84.538 189.008,83.565 189.171,82.536 189.273 C 81.506 189.375,80.225 189.547,79.688 189.657 C 78.690 189.860,77.097 190.070,73.633 190.454 C 72.559 190.572,71.416 190.745,71.094 190.837 C 69.906 191.176,62.626 191.041,60.450 190.639 C 56.834 189.970,50.784 187.212,50.782 186.230 C 50.782 186.069,50.537 185.938,50.238 185.938 C 49.603 185.937,43.462 179.562,42.937 178.358 C 42.563 177.500,41.740 176.115,41.406 175.781 C 40.939 175.314,36.557 166.772,36.651 166.512 C 36.668 166.463,36.262 165.470,35.747 164.307 L 34.812 162.192 36.746 160.100 C 39.206 157.439,42.047 151.607,42.142 149.023 C 42.453 140.542,38.664 131.807,33.876 129.970 C 33.506 129.828,33.203 129.520,33.203 129.286 C 33.203 129.052,33.026 128.970,32.810 129.103 C 32.593 129.237,32.317 129.087,32.196 128.771 C 32.074 128.454,31.504 128.062,30.929 127.899 C 29.586 127.519,29.678 127.550,28.401 127.021 C 24.443 125.381,17.793 125.683,13.707 127.689 C 9.650 129.681,9.162 130.102,4.477 135.652 C 4.090 136.111,2.768 139.336,2.722 139.934 C 2.710 140.092,2.467 140.795,2.182 141.497 C 0.539 145.541,2.421 154.842,5.566 158.217 C 5.942 158.621,6.250 159.041,6.250 159.150 C 6.250 159.260,6.842 159.926,7.566 160.632 C 11.978 164.934,16.056 166.463,23.404 166.571 C 25.459 166.601,26.643 167.516,26.867 169.249 C 26.889 169.416,27.373 170.540,27.944 171.746 C 28.514 172.951,29.318 174.660,29.729 175.543 C 31.200 178.700,33.084 181.903,34.790 184.147 C 35.743 185.402,36.774 186.801,37.081 187.257 C 38.042 188.686,42.731 193.359,43.203 193.359 C 43.451 193.359,43.893 193.647,44.185 193.998 C 45.322 195.368,53.329 199.771,53.967 199.376 C 54.149 199.264,54.297 199.321,54.297 199.503 C 54.297 199.685,54.604 199.868,54.980 199.911 C 55.816 200.005,57.227 200.308,57.227 200.393 C 57.227 200.947,69.205 201.167,73.438 200.690 C 77.223 200.264,81.606 199.666,85.938 198.986 C 96.440 197.336,105.304 198.094,111.995 201.213 C 113.329 201.835,114.560 202.344,114.730 202.344 C 114.900 202.344,115.550 202.784,116.174 203.321 C 116.798 203.858,117.441 204.297,117.603 204.297 C 117.765 204.297,118.992 205.396,120.331 206.738 C 124.126 210.545,125.552 212.986,132.024 226.758 C 132.730 228.262,134.447 231.865,135.838 234.766 C 137.229 237.666,138.743 240.830,139.203 241.797 C 139.663 242.764,140.171 243.613,140.332 243.685 C 140.493 243.757,140.625 244.038,140.625 244.310 C 140.625 244.583,141.060 245.623,141.591 246.622 C 142.122 247.620,142.452 248.438,142.324 248.438 C 142.196 248.438,142.311 248.701,142.578 249.023 C 143.276 249.864,143.066 249.797,139.009 247.889 C 131.696 244.450,129.401 243.539,121.484 240.935 C 116.466 239.284,107.590 238.706,101.172 239.613 C 100.205 239.750,99.150 239.872,98.828 239.885 C 98.506 239.898,97.979 240.015,97.656 240.143 C 97.334 240.272,96.104 240.591,94.922 240.851 C 93.740 241.112,92.346 241.428,91.823 241.553 C 91.062 241.734,90.532 241.435,89.172 240.055 C 81.333 232.104,68.278 232.161,60.547 240.180 C 57.338 243.508,55.892 245.911,55.328 248.851 C 55.228 249.376,54.976 250.539,54.769 251.437 C 54.397 253.051,54.446 256.033,54.886 258.493 C 55.010 259.189,55.112 259.845,55.111 259.950 C 55.109 260.380,57.559 265.089,58.115 265.723 C 58.445 266.099,58.594 266.406,58.447 266.406 C 57.706 266.406,63.393 271.414,64.879 272.070 C 65.826 272.488,66.690 272.951,66.798 273.098 C 67.579 274.164,75.078 275.060,78.320 274.474 C 80.091 274.154,84.470 272.644,84.766 272.251 C 84.873 272.109,85.389 271.766,85.913 271.490 C 87.444 270.683,88.897 269.347,90.625 267.158 C 91.162 266.477,91.777 265.722,91.992 265.480 C 92.574 264.824,93.750 262.167,93.750 261.510 C 93.750 261.195,93.936 260.938,94.164 260.938 C 94.391 260.937,94.489 260.794,94.380 260.619 C 94.272 260.443,94.416 259.623,94.701 258.795 C 95.008 257.902,95.177 255.999,95.118 254.115 C 95.027 251.227,95.085 250.935,95.767 250.884 C 96.179 250.853,97.872 250.517,99.528 250.139 C 101.630 249.658,104.249 249.445,108.203 249.432 C 113.683 249.415,114.407 249.487,117.773 250.386 C 118.633 250.616,119.687 250.883,120.117 250.980 C 120.547 251.076,121.294 251.335,121.777 251.554 C 123.138 252.172,124.252 252.615,126.282 253.348 C 127.310 253.719,128.243 254.172,128.356 254.355 C 128.469 254.538,128.859 254.686,129.222 254.684 C 130.097 254.679,142.660 260.804,145.801 262.766 C 146.606 263.270,147.266 263.561,147.266 263.413 C 147.266 263.266,147.661 263.507,148.145 263.950 C 148.628 264.392,149.375 264.860,149.805 264.990 C 150.488 265.195,151.656 267.192,152.578 269.729 C 152.734 270.157,153.196 270.991,153.606 271.582 C 154.015 272.173,154.264 272.656,154.158 272.656 C 154.053 272.656,154.737 274.154,155.679 275.984 C 156.621 277.815,157.377 279.353,157.360 279.402 C 157.342 279.452,158.732 282.393,160.447 285.938 C 162.163 289.482,163.690 292.778,163.841 293.262 C 163.992 293.745,164.279 294.141,164.479 294.141 C 164.680 294.141,164.844 294.341,164.844 294.586 C 164.844 295.003,165.563 296.543,170.930 307.617 C 172.076 309.980,172.990 312.002,172.963 312.109 C 172.936 312.217,173.383 313.048,173.957 313.957 C 174.531 314.866,175.000 315.711,175.000 315.834 C 175.000 316.192,176.617 319.682,177.010 320.172 C 177.218 320.430,177.367 331.303,177.367 346.121 C 177.366 364.018,177.493 371.780,177.793 372.141 C 178.028 372.424,178.107 372.656,177.967 372.656 C 177.616 372.656,178.802 374.933,179.958 376.476 C 180.900 377.735,183.303 379.129,185.180 379.504 C 186.464 379.761,213.583 379.744,214.944 379.485 C 218.028 378.899,221.637 375.528,222.028 372.869 C 222.074 372.549,222.228 372.174,222.368 372.033 C 222.508 371.893,222.630 360.739,222.638 347.246 C 222.647 333.431,222.810 322.316,223.010 321.806 C 223.206 321.307,224.556 318.438,226.009 315.430 C 227.461 312.422,228.675 309.873,228.706 309.766 C 228.771 309.539,231.604 303.652,235.944 294.727 C 238.664 289.130,240.258 285.717,240.413 285.156 C 240.443 285.049,240.853 284.346,241.326 283.594 C 241.798 282.842,242.187 282.051,242.189 281.836 C 242.192 281.621,243.042 279.688,244.079 277.539 C 245.116 275.391,246.614 272.191,247.409 270.429 C 249.217 266.423,249.993 264.928,250.004 265.430 C 250.008 265.645,250.141 265.618,250.299 265.371 C 250.457 265.123,251.761 264.332,253.197 263.613 C 254.633 262.893,258.807 260.765,262.472 258.883 C 266.138 257.001,269.230 255.473,269.345 255.488 C 269.459 255.503,270.471 255.087,271.593 254.564 C 272.715 254.040,274.336 253.372,275.195 253.078 C 276.055 252.784,276.846 252.446,276.953 252.327 C 278.723 250.368,294.670 248.519,298.807 249.792 C 299.141 249.895,300.029 250.056,300.781 250.151 C 301.533 250.245,302.412 250.411,302.734 250.519 C 303.057 250.628,303.771 250.814,304.321 250.933 C 305.290 251.143,305.321 251.244,305.320 254.188 C 305.319 257.589,305.581 259.235,306.491 261.523 C 307.640 264.416,308.489 265.856,309.863 267.247 C 310.454 267.844,310.938 268.499,310.938 268.701 C 310.938 268.903,311.728 269.568,312.695 270.179 C 313.661 270.790,314.452 271.421,314.452 271.582 C 314.453 271.743,314.647 271.875,314.885 271.875 C 315.122 271.875,316.159 272.298,317.189 272.816 C 327.780 278.135,342.911 271.001,345.139 259.637 C 345.217 259.244,345.399 258.545,345.545 258.085 C 345.850 257.125,345.831 252.625,345.516 251.172 C 345.400 250.635,345.211 249.668,345.097 249.023 C 344.781 247.241,342.830 243.281,341.630 241.986 C 341.043 241.352,340.444 240.648,340.300 240.422 C 339.411 239.024,334.689 236.044,331.250 234.710 C 329.692 234.106,321.756 233.976,320.508 234.534 C 320.078 234.726,319.515 234.928,319.257 234.983 C 317.078 235.442,313.867 237.421,311.223 239.934 C 310.153 240.951,309.128 241.690,308.945 241.577 C 308.762 241.464,308.125 241.309,307.529 241.232 C 306.933 241.155,305.339 240.805,303.986 240.453 C 299.839 239.374,288.521 238.864,284.863 239.591 C 284.165 239.730,283.022 239.944,282.324 240.066 C 280.504 240.385,272.051 243.244,269.618 244.364 C 268.484 244.886,267.463 245.313,267.349 245.313 C 267.162 245.313,262.300 247.575,259.097 249.153 C 257.299 250.039,257.316 249.839,259.403 245.508 C 260.439 243.359,261.304 241.561,261.325 241.512 C 261.347 241.463,261.794 240.451,262.319 239.264 C 262.844 238.077,263.287 236.975,263.305 236.815 C 263.323 236.654,263.556 236.260,263.823 235.938 C 264.406 235.235,267.137 229.503,267.359 228.516 C 267.383 228.408,267.720 227.846,268.108 227.266 C 268.496 226.687,268.851 225.984,268.898 225.704 C 269.074 224.654,274.653 213.387,275.920 211.523 C 277.216 209.617,280.213 206.407,282.485 204.492 C 288.029 199.819,300.102 197.161,309.961 198.445 C 313.472 198.901,318.049 199.522,322.852 200.192 C 329.714 201.150,337.528 201.320,341.211 200.591 C 346.308 199.583,346.484 199.535,346.484 199.174 C 346.484 198.984,346.754 198.828,347.083 198.828 C 349.056 198.828,356.413 194.025,360.065 190.354 C 361.626 188.784,362.832 187.500,362.746 187.500 C 362.660 187.500,363.202 186.841,363.950 186.035 C 364.698 185.229,365.428 184.307,365.574 183.984 C 365.719 183.662,366.441 182.460,367.178 181.313 C 367.916 180.166,368.554 178.986,368.598 178.691 C 368.641 178.395,369.024 177.663,369.449 177.065 C 370.395 175.732,372.656 170.794,372.656 170.063 C 372.656 169.771,372.815 169.531,373.010 169.531 C 373.204 169.531,373.600 168.785,373.889 167.872 L 374.414 166.214 377.494 166.311 C 385.903 166.576,396.151 159.535,397.413 152.625 C 397.500 152.148,397.777 150.994,398.029 150.061 C 398.851 147.016,398.110 139.868,396.831 138.496 C 396.640 138.292,396.484 137.837,396.484 137.485 C 396.484 136.848,393.779 132.818,392.575 131.663 C 390.919 130.073,388.480 128.390,386.807 127.683 C 385.791 127.254,384.609 126.748,384.180 126.558 C 382.194 125.683,375.775 125.421,373.828 126.136 C 373.291 126.333,372.017 126.724,370.996 127.004 C 369.976 127.285,369.141 127.662,369.141 127.843 C 369.141 128.023,368.985 128.075,368.794 127.957 C 368.604 127.839,368.231 128.005,367.965 128.325 C 367.700 128.645,367.327 128.906,367.136 128.906 C 366.946 128.906,366.247 129.390,365.584 129.980 C 364.920 130.571,363.867 131.510,363.243 132.066 C 362.620 132.622,362.109 133.267,362.109 133.498 C 362.109 133.730,361.971 133.978,361.802 134.049 C 361.179 134.314,359.778 136.656,359.167 138.455 C 357.520 143.306,357.372 145.747,358.396 151.172 C 358.701 152.789,360.458 156.511,361.421 157.585 C 361.795 158.001,362.202 158.661,362.327 159.053 C 362.451 159.445,362.693 159.766,362.864 159.766 C 364.099 159.766,365.162 161.797,364.613 163.109 C 364.305 163.848,364.152 164.453,364.275 164.453 C 364.397 164.453,364.224 164.844,363.889 165.321 C 363.555 165.799,363.281 166.502,363.281 166.884 C 363.281 167.266,363.105 167.578,362.891 167.578 C 362.676 167.578,362.500 167.798,362.499 168.066 C 362.498 168.734,358.974 175.554,358.547 175.716 C 358.358 175.788,358.203 176.051,358.203 176.302 C 358.202 176.553,357.763 177.269,357.226 177.893 C 356.689 178.517,356.250 179.158,356.250 179.316 C 356.250 179.606,354.839 181.266,352.833 183.337 C 351.342 184.876,347.217 187.891,346.602 187.891 C 346.322 187.891,346.093 188.022,346.092 188.184 C 346.091 188.460,343.198 189.787,342.105 190.012 C 341.828 190.070,341.250 190.275,340.820 190.468 C 340.391 190.662,337.490 190.808,334.375 190.794 C 329.423 190.770,327.234 190.614,323.047 189.983 C 322.510 189.902,320.664 189.662,318.945 189.449 C 317.227 189.236,315.293 188.970,314.648 188.856 C 305.549 187.256,296.258 187.814,287.844 190.465 C 286.044 191.033,284.482 191.625,284.375 191.782 C 284.268 191.939,283.709 192.182,283.133 192.323 C 282.557 192.464,281.854 192.799,281.570 193.067 C 281.287 193.335,280.264 193.948,279.297 194.428 C 278.330 194.908,277.125 195.743,276.619 196.284 C 276.113 196.824,275.541 197.266,275.347 197.266 C 275.153 197.266,273.956 198.320,272.687 199.609 C 271.418 200.898,270.443 201.953,270.521 201.953 C 270.599 201.953,270.058 202.612,269.318 203.418 C 268.578 204.224,267.972 205.088,267.971 205.339 C 267.970 205.589,267.819 205.853,267.637 205.924 C 267.192 206.099,265.234 209.246,265.234 209.786 C 265.234 210.020,264.969 210.477,264.645 210.802 C 264.321 211.126,264.155 211.553,264.277 211.750 C 264.399 211.948,264.313 212.109,264.086 212.109 C 263.858 212.109,263.672 212.305,263.672 212.545 C 263.672 212.784,262.512 215.377,261.094 218.306 C 258.266 224.148,256.000 228.888,253.599 233.984 C 252.739 235.811,251.029 239.414,249.800 241.992 C 247.051 247.756,245.972 250.116,245.930 250.456 C 245.913 250.599,245.775 250.840,245.624 250.991 C 245.358 251.256,242.843 256.244,242.774 256.641 C 242.756 256.748,242.352 257.693,241.878 258.741 C 241.404 259.789,241.016 260.785,241.016 260.955 C 241.016 261.124,240.884 261.322,240.723 261.393 C 240.421 261.527,240.279 261.807,237.479 267.773 C 236.572 269.707,234.673 273.662,233.260 276.563 C 231.847 279.463,230.671 281.924,230.646 282.031 C 230.621 282.139,230.190 283.105,229.689 284.180 C 229.188 285.254,228.807 286.265,228.842 286.426 C 228.877 286.587,228.764 286.719,228.591 286.719 C 228.417 286.719,227.953 287.466,227.560 288.379 C 227.166 289.292,226.253 291.317,225.531 292.880 C 224.809 294.442,224.219 295.800,224.219 295.898 C 224.219 295.995,223.868 296.650,223.440 297.354 L 222.662 298.633 222.561 232.422 L 222.461 166.211 238.086 166.138 C 246.680 166.098,264.961 166.015,278.711 165.954 C 302.124 165.850,308.203 165.610,308.203 164.790 C 308.203 164.605,308.449 164.453,308.750 164.453 C 309.609 164.453,311.957 161.886,312.955 159.855 C 313.790 158.157,314.281 132.523,313.541 129.297 C 313.467 128.975,313.269 128.040,313.100 127.220 C 312.737 125.453,310.139 122.631,307.923 121.597 C 306.314 120.846,309.938 120.873,245.609 121.139 C 233.204 121.190,222.968 121.145,222.861 121.038 C 222.755 120.932,222.659 100.027,222.647 74.583 C 222.626 29.094,222.613 28.291,221.840 26.574 C 220.606 23.830,219.358 22.464,217.058 21.338 L 214.927 20.296 200.790 20.206 C 193.015 20.157,186.619 20.152,186.577 20.194 M383.098 137.240 C 384.223 137.816,385.449 138.769,385.824 139.358 C 386.199 139.948,386.624 140.518,386.768 140.625 C 389.150 142.396,388.084 151.516,385.295 153.231 C 385.025 153.397,384.567 153.770,384.278 154.060 C 380.313 158.024,371.907 156.204,369.141 150.783 C 368.098 148.738,367.402 144.686,368.028 144.299 C 368.217 144.182,368.289 143.952,368.187 143.787 C 367.910 143.340,369.894 139.781,370.991 138.755 C 374.451 135.521,378.703 134.988,383.098 137.240 M25.669 136.866 C 33.810 139.782,34.242 151.087,26.380 155.468 C 24.655 156.430,20.498 156.809,19.569 156.089 C 19.267 155.855,18.959 155.710,18.883 155.766 C 17.723 156.631,13.141 152.305,12.333 149.581 C 10.787 144.377,13.643 137.948,17.969 136.894 C 18.076 136.868,18.428 136.740,18.750 136.610 C 20.565 135.878,23.183 135.975,25.669 136.866 M79.004 245.104 C 80.376 245.763,83.957 248.824,83.367 248.834 C 83.169 248.837,83.184 248.969,83.399 249.127 C 85.124 250.392,85.538 256.093,84.101 258.789 C 78.286 269.694,61.967 263.615,65.070 251.701 C 66.583 245.894,73.665 242.541,79.004 245.104 M330.652 245.696 C 338.636 250.264,336.808 261.936,327.746 264.248 C 325.741 264.759,322.066 264.310,321.062 263.430 C 320.722 263.132,320.348 262.985,320.230 263.103 C 319.825 263.508,316.094 258.915,315.826 257.681 C 315.050 254.108,315.539 250.493,317.043 248.700 C 317.552 248.093,317.969 247.472,317.969 247.320 C 317.969 247.168,318.540 246.711,319.238 246.305 C 319.937 245.899,320.599 245.432,320.711 245.268 C 320.823 245.104,321.416 244.879,322.029 244.768 C 322.642 244.656,323.253 244.451,323.388 244.312 C 324.050 243.627,328.525 244.479,330.652 245.696 " stroke="none" fill="#e4bc4c" fill-rule="evenodd"></path><path id="path1" d="M193.457 20.214 C 197.056 20.279,202.944 20.279,206.543 20.214 C 210.142 20.150,207.197 20.097,200.000 20.097 C 192.803 20.097,189.858 20.150,193.457 20.214 M269.629 120.972 C 270.005 121.071,270.620 121.071,270.996 120.972 C 271.372 120.874,271.064 120.794,270.313 120.794 C 269.561 120.794,269.253 120.874,269.629 120.972 M273.145 120.972 C 273.521 121.071,274.136 121.071,274.512 120.972 C 274.888 120.874,274.580 120.794,273.828 120.794 C 273.076 120.794,272.769 120.874,273.145 120.972 M281.543 120.979 C 282.026 121.072,282.817 121.072,283.301 120.979 C 283.784 120.886,283.389 120.810,282.422 120.810 C 281.455 120.810,281.060 120.886,281.543 120.979 M152.832 121.754 C 153.208 121.852,153.823 121.852,154.199 121.754 C 154.575 121.655,154.268 121.575,153.516 121.575 C 152.764 121.575,152.456 121.655,152.832 121.754 M7.031 132.227 C 6.082 133.193,5.394 133.984,5.501 133.984 C 5.609 133.984,6.473 133.193,7.422 132.227 C 8.371 131.260,9.059 130.469,8.952 130.469 C 8.844 130.469,7.980 131.260,7.031 132.227 M36.661 132.520 C 37.308 133.218,38.157 134.149,38.548 134.589 C 39.584 135.756,39.005 134.828,37.500 132.910 C 36.784 131.997,36.037 131.250,35.840 131.250 C 35.644 131.250,36.013 131.821,36.661 132.520 M313.778 137.500 C 313.778 138.467,313.854 138.862,313.948 138.379 C 314.041 137.896,314.041 137.104,313.948 136.621 C 313.854 136.138,313.778 136.533,313.778 137.500 M28.125 138.403 C 28.125 138.471,28.696 139.042,29.395 139.673 L 30.664 140.820 29.517 139.551 C 28.447 138.367,28.125 138.102,28.125 138.403 M86.044 139.844 C 86.044 140.811,86.120 141.206,86.213 140.723 C 86.306 140.239,86.306 139.448,86.213 138.965 C 86.120 138.481,86.044 138.877,86.044 139.844 M313.763 142.578 C 313.763 143.330,313.843 143.638,313.941 143.262 C 314.039 142.886,314.039 142.271,313.941 141.895 C 313.843 141.519,313.763 141.826,313.763 142.578 M86.028 144.922 C 86.028 145.674,86.109 145.981,86.207 145.605 C 86.305 145.229,86.305 144.614,86.207 144.238 C 86.109 143.862,86.028 144.170,86.028 144.922 M313.778 147.656 C 313.778 148.623,313.854 149.019,313.948 148.535 C 314.041 148.052,314.041 147.261,313.948 146.777 C 313.854 146.294,313.778 146.689,313.778 147.656 M86.044 150.000 C 86.044 150.967,86.120 151.362,86.213 150.879 C 86.306 150.396,86.306 149.604,86.213 149.121 C 86.120 148.638,86.044 149.033,86.044 150.000 M385.127 152.981 C 384.224 153.961,384.220 153.984,385.051 153.478 C 385.530 153.186,386.008 152.723,386.113 152.450 C 386.393 151.721,386.184 151.833,385.127 152.981 M3.711 155.859 C 4.044 156.504,4.405 157.031,4.512 157.031 C 4.620 157.031,4.435 156.504,4.102 155.859 C 3.768 155.215,3.408 154.688,3.300 154.688 C 3.193 154.688,3.378 155.215,3.711 155.859 M363.642 160.691 C 364.700 161.839,364.908 161.951,364.629 161.222 C 364.524 160.949,364.046 160.486,363.567 160.194 C 362.736 159.688,362.739 159.711,363.642 160.691 M88.868 163.998 C 89.512 164.715,90.391 165.484,90.820 165.706 C 91.250 165.929,91.426 165.957,91.211 165.769 C 90.996 165.581,90.118 164.813,89.259 164.061 L 87.697 162.695 88.868 163.998 M240.137 166.291 C 240.620 166.384,241.411 166.384,241.895 166.291 C 242.378 166.198,241.982 166.122,241.016 166.122 C 240.049 166.122,239.653 166.198,240.137 166.291 M245.410 166.285 C 245.786 166.383,246.401 166.383,246.777 166.285 C 247.153 166.187,246.846 166.106,246.094 166.106 C 245.342 166.106,245.034 166.187,245.410 166.285 M250.293 166.291 C 250.776 166.384,251.567 166.384,252.051 166.291 C 252.534 166.198,252.139 166.122,251.172 166.122 C 250.205 166.122,249.810 166.198,250.293 166.291 M175.098 166.676 C 175.474 166.774,176.089 166.774,176.465 166.676 C 176.841 166.577,176.533 166.497,175.781 166.497 C 175.029 166.497,174.722 166.577,175.098 166.676 M104.785 167.066 C 105.161 167.164,105.776 167.164,106.152 167.066 C 106.528 166.968,106.221 166.888,105.469 166.888 C 104.717 166.888,104.409 166.968,104.785 167.066 M115.723 167.066 C 116.099 167.164,116.714 167.164,117.090 167.066 C 117.466 166.968,117.158 166.888,116.406 166.888 C 115.654 166.888,115.347 166.968,115.723 167.066 M120.605 167.073 C 121.089 167.166,121.880 167.166,122.363 167.073 C 122.847 166.979,122.451 166.903,121.484 166.903 C 120.518 166.903,120.122 166.979,120.605 167.073 M47.070 183.203 C 48.563 184.707,49.872 185.938,49.979 185.938 C 50.086 185.938,48.953 184.707,47.461 183.203 C 45.969 181.699,44.660 180.469,44.552 180.469 C 44.445 180.469,45.578 181.699,47.070 183.203 M352.134 183.675 L 350.195 185.709 352.008 184.163 C 353.522 182.871,354.578 181.641,354.172 181.641 C 354.117 181.641,353.200 182.556,352.134 183.675 M35.932 186.136 C 37.487 188.009,37.618 188.130,37.193 187.300 C 36.972 186.868,36.379 186.166,35.876 185.741 C 34.993 184.994,34.995 185.008,35.932 186.136 M354.883 194.761 L 353.711 195.768 354.980 194.928 C 355.679 194.465,356.250 194.012,356.250 193.919 C 356.250 193.626,356.085 193.728,354.883 194.761 M127.371 217.383 C 127.371 217.598,127.623 218.213,127.930 218.750 C 128.237 219.287,128.488 219.551,128.488 219.336 C 128.488 219.121,128.237 218.506,127.930 217.969 C 127.623 217.432,127.371 217.168,127.371 217.383 M131.668 226.367 C 131.668 226.582,131.920 227.197,132.227 227.734 C 132.534 228.271,132.785 228.535,132.785 228.320 C 132.785 228.105,132.534 227.490,132.227 226.953 C 131.920 226.416,131.668 226.152,131.668 226.367 M60.135 240.137 L 58.789 241.602 60.347 240.234 C 61.204 239.482,61.981 238.823,62.073 238.770 C 62.164 238.716,62.069 238.672,61.860 238.672 C 61.652 238.672,60.876 239.331,60.135 240.137 M87.891 238.794 C 87.891 238.861,88.462 239.433,89.160 240.064 L 90.430 241.211 89.282 239.941 C 88.213 238.758,87.891 238.492,87.891 238.794 M74.516 244.417 C 75.002 244.510,75.705 244.507,76.079 244.409 C 76.452 244.311,76.055 244.235,75.195 244.239 C 74.336 244.243,74.030 244.323,74.516 244.417 M318.433 246.890 C 317.963 247.328,317.578 247.798,317.578 247.935 C 317.578 248.071,318.018 247.770,318.555 247.266 C 319.471 246.405,319.698 246.094,319.410 246.094 C 319.343 246.094,318.903 246.452,318.433 246.890 M262.500 247.266 C 261.748 247.677,261.309 248.014,261.523 248.014 C 261.738 248.014,262.529 247.677,263.281 247.266 C 264.033 246.854,264.473 246.517,264.258 246.517 C 264.043 246.517,263.252 246.854,262.500 247.266 M84.856 255.078 C 84.856 255.830,84.937 256.138,85.035 255.762 C 85.133 255.386,85.133 254.771,85.035 254.395 C 84.937 254.019,84.856 254.326,84.856 255.078 M315.325 255.078 C 315.325 255.830,315.405 256.138,315.504 255.762 C 315.602 255.386,315.602 254.771,315.504 254.395 C 315.405 254.019,315.325 254.326,315.325 255.078 M67.578 261.523 C 68.307 262.275,68.991 262.891,69.099 262.891 C 69.206 262.891,68.698 262.275,67.969 261.523 C 67.240 260.771,66.556 260.156,66.448 260.156 C 66.341 260.156,66.849 260.771,67.578 261.523 M142.578 261.113 C 142.578 261.220,143.105 261.581,143.750 261.914 C 144.395 262.247,144.922 262.432,144.922 262.325 C 144.922 262.217,144.395 261.857,143.750 261.523 C 143.105 261.190,142.578 261.005,142.578 261.113 M246.938 271.306 C 246.284 272.742,246.409 273.049,247.117 271.743 C 247.447 271.133,247.644 270.561,247.555 270.472 C 247.466 270.382,247.188 270.758,246.938 271.306 M324.907 274.886 C 325.393 274.979,326.096 274.976,326.469 274.878 C 326.843 274.780,326.445 274.704,325.586 274.708 C 324.727 274.712,324.421 274.792,324.907 274.886 M226.626 313.884 C 225.971 315.320,226.096 315.627,226.804 314.321 C 227.134 313.711,227.332 313.139,227.242 313.050 C 227.153 312.960,226.876 313.336,226.626 313.884 M177.008 320.845 C 177.284 321.460,177.581 321.751,177.667 321.490 C 177.754 321.230,177.528 320.727,177.166 320.372 C 176.549 319.768,176.539 319.798,177.008 320.845 M193.457 379.980 C 197.056 380.044,202.944 380.044,206.543 379.980 C 210.142 379.915,207.197 379.863,200.000 379.863 C 192.803 379.863,189.858 379.915,193.457 379.980 " stroke="none" fill="#e4bc44" fill-rule="evenodd"></path><path id="path2" d="" stroke="none" fill="#e8bc4c" fill-rule="evenodd"></path><path id="path3" d="" stroke="none" fill="#e8bc4c" fill-rule="evenodd"></path><path id="path4" d="" stroke="none" fill="#e8bc4c" fill-rule="evenodd"></path></g></svg>