<?xml version="1.0" encoding="UTF-8"?>
<svg version="1.1" xmlns="http://www.w3.org/2000/svg" width="1024" height="1024">
<path d="M0 0 C337.92 0 675.84 0 1024 0 C1024 337.92 1024 675.84 1024 1024 C686.08 1024 348.16 1024 0 1024 C0 686.08 0 348.16 0 0 Z " fill="#FAF9F8" transform="translate(0,0)"/>
<path d="M0 0 C1.27984058 1.1366836 2.57479689 2.25630017 3.87207031 3.37304688 C16.70420126 14.57360103 29.10032646 26.75954411 39.45800781 40.29492188 C40.2765625 41.29652344 41.09511719 42.298125 41.93847656 43.33007812 C90.65584114 103.07863069 113.53231976 178.18380496 113.83300781 254.48242188 C113.84506256 256.1891658 113.84506256 256.1891658 113.85736084 257.9303894 C113.96996136 278.97360658 112.38835032 299.73777639 107.70800781 320.29492188 C107.44979248 321.45386963 107.19157715 322.61281738 106.92553711 323.80688477 C93.70575644 381.95570736 67.46430296 435.84348283 27.45800781 480.29492188 C26.9659082 480.84341797 26.47380859 481.39191406 25.96679688 481.95703125 C16.37615239 492.60220984 6.49613339 503.13327765 -4.54199219 512.29492188 C-5.06148437 512.73352539 -5.58097656 513.17212891 -6.11621094 513.62402344 C-57.31542021 556.77037695 -119.0536159 583.73016824 -185.47436523 592.0300293 C-187.37775927 592.27388129 -189.2766376 592.55232087 -191.17480469 592.83398438 C-238.30765618 599.28604525 -289.23962064 592.10747712 -333.78417969 576.07226562 C-334.81220703 575.70343262 -335.84023438 575.33459961 -336.89941406 574.95458984 C-338.84199865 574.24828118 -340.77883932 573.52586102 -342.70800781 572.78369141 C-343.58908203 572.45868652 -344.47015625 572.13368164 -345.37792969 571.79882812 C-346.51560791 571.36292358 -346.51560791 571.36292358 -347.67626953 570.91821289 C-355.7088185 569.17114375 -361.99143286 570.27812384 -369.25683594 573.88867188 C-370.05738907 574.26683044 -370.8579422 574.64498901 -371.68275452 575.03460693 C-374.29030946 576.2707658 -376.8844076 577.53282441 -379.47949219 578.79492188 C-381.31116391 579.66781384 -383.14386267 580.53855369 -384.97753906 581.40722656 C-388.71066976 583.17706694 -392.43984944 584.95484794 -396.16650391 586.73828125 C-403.91476416 590.43594156 -411.7263615 593.99256523 -419.54199219 597.54492188 C-420.96698239 598.19435163 -422.39186874 598.84400931 -423.81665039 599.49389648 C-426.63717616 600.78040633 -429.45810358 602.06602892 -432.27929688 603.35107422 C-435.92911808 605.0143598 -439.57621027 606.68355202 -443.22276306 608.35398865 C-450.84222591 611.84410151 -458.47121863 615.31192235 -466.11474609 618.74902344 C-468.22186828 619.69946493 -470.32634594 620.65582817 -472.42626953 621.62207031 C-482.01219656 626.02986023 -490.68018403 629.75523168 -501.28808594 626.43554688 C-508.24505552 623.41706973 -512.47088903 618.83646145 -515.59610844 611.98344326 C-518.50715061 603.70927731 -516.03928405 594.74114116 -513.89575195 586.55639648 C-513.6145047 585.43943893 -513.33325745 584.32248138 -513.04348755 583.17167664 C-512.11867252 579.51040989 -511.17589522 575.85401637 -510.23339844 572.19726562 C-509.58426544 569.63653454 -508.93649546 567.07545759 -508.2900238 564.51405334 C-506.76397694 558.47476152 -505.22594976 552.43859969 -503.68243879 546.40375 C-500.75618325 534.96258424 -497.84670581 523.51720159 -494.95014763 512.06848335 C-493.99898872 508.32118691 -493.03835099 504.57641247 -492.07679749 500.83177185 C-491.49006111 498.52262008 -490.90365359 496.21338472 -490.31762695 493.90405273 C-490.05005081 492.87260132 -489.78247467 491.8411499 -489.50679016 490.77844238 C-486.27487111 479.73293151 -486.27487111 479.73293151 -488.24511719 469.00195312 C-489.08558594 468.04675781 -489.92605469 467.0915625 -490.79199219 466.10742188 C-491.72886911 464.99319923 -492.66369066 463.87724581 -493.59667969 462.75976562 C-494.08491211 462.19112793 -494.57314453 461.62249023 -495.07617188 461.03662109 C-529.4573463 420.18463935 -550.53185049 367.30101648 -560.54199219 315.29492188 C-560.98536552 313.10152791 -561.42919971 310.90823398 -561.875 308.71533203 C-565.14104852 290.73676754 -565.89313042 272.6791538 -565.85766602 254.43994141 C-565.85450801 251.06184485 -565.87807486 247.68462989 -565.90332031 244.30664062 C-565.9599723 224.82940612 -564.14409293 205.60245242 -560.35449219 186.48242188 C-560.14655029 185.42732422 -559.9386084 184.37222656 -559.72436523 183.28515625 C-548.24623883 127.40167 -522.27044067 75.03511328 -484.54199219 32.29492188 C-483.88618164 31.55153564 -483.23037109 30.80814941 -482.5546875 30.04223633 C-470.84349651 16.89217587 -458.52189341 4.04235698 -444.54199219 -6.70507812 C-443.47745231 -7.58908992 -442.41649136 -8.4774224 -441.35839844 -9.36914062 C-425.24349535 -22.8328531 -407.2097232 -34.12694527 -388.54199219 -43.70507812 C-387.56311035 -44.20749023 -386.58422852 -44.70990234 -385.57568359 -45.22753906 C-293.89316772 -91.78888997 -183.62025483 -95.85780373 0 0 Z " fill="#FAF9F8" transform="translate(738.5419921875,211.705078125)"/>
<path d="M0 0 C1.27984058 1.1366836 2.57479689 2.25630017 3.87207031 3.37304688 C16.70420126 14.57360103 29.10032646 26.75954411 39.45800781 40.29492188 C40.2765625 41.29652344 41.09511719 42.298125 41.93847656 43.33007812 C90.65584114 103.07863069 113.53231976 178.18380496 113.83300781 254.48242188 C113.84506256 256.1891658 113.84506256 256.1891658 113.85736084 257.9303894 C113.96996136 278.97360658 112.38835032 299.73777639 107.70800781 320.29492188 C107.44979248 321.45386963 107.19157715 322.61281738 106.92553711 323.80688477 C93.70575644 381.95570736 67.46430296 435.84348283 27.45800781 480.29492188 C26.9659082 480.84341797 26.47380859 481.39191406 25.96679688 481.95703125 C16.37615239 492.60220984 6.49613339 503.13327765 -4.54199219 512.29492188 C-5.06148437 512.73352539 -5.58097656 513.17212891 -6.11621094 513.62402344 C-57.31542021 556.77037695 -119.0536159 583.73016824 -185.47436523 592.0300293 C-187.37775927 592.27388129 -189.2766376 592.55232087 -191.17480469 592.83398438 C-238.30765618 599.28604525 -289.23962064 592.10747712 -333.78417969 576.07226562 C-334.81220703 575.70343262 -335.84023438 575.33459961 -336.89941406 574.95458984 C-338.84199865 574.24828118 -340.77883932 573.52586102 -342.70800781 572.78369141 C-343.58908203 572.45868652 -344.47015625 572.13368164 -345.37792969 571.79882812 C-346.51560791 571.36292358 -346.51560791 571.36292358 -347.67626953 570.91821289 C-355.7088185 569.17114375 -361.99143286 570.27812384 -369.25683594 573.88867188 C-370.05738907 574.26683044 -370.8579422 574.64498901 -371.68275452 575.03460693 C-374.29030946 576.2707658 -376.8844076 577.53282441 -379.47949219 578.79492188 C-381.31116391 579.66781384 -383.14386267 580.53855369 -384.97753906 581.40722656 C-388.71066976 583.17706694 -392.43984944 584.95484794 -396.16650391 586.73828125 C-403.91476416 590.43594156 -411.7263615 593.99256523 -419.54199219 597.54492188 C-420.96698239 598.19435163 -422.39186874 598.84400931 -423.81665039 599.49389648 C-426.63717616 600.78040633 -429.45810358 602.06602892 -432.27929688 603.35107422 C-435.92911808 605.0143598 -439.57621027 606.68355202 -443.22276306 608.35398865 C-450.84222591 611.84410151 -458.47121863 615.31192235 -466.11474609 618.74902344 C-468.22186828 619.69946493 -470.32634594 620.65582817 -472.42626953 621.62207031 C-482.01219656 626.02986023 -490.68018403 629.75523168 -501.28808594 626.43554688 C-508.24505552 623.41706973 -512.47088903 618.83646145 -515.59610844 611.98344326 C-518.50715061 603.70927731 -516.03928405 594.74114116 -513.89575195 586.55639648 C-513.6145047 585.43943893 -513.33325745 584.32248138 -513.04348755 583.17167664 C-512.11867252 579.51040989 -511.17589522 575.85401637 -510.23339844 572.19726562 C-509.58426544 569.63653454 -508.93649546 567.07545759 -508.2900238 564.51405334 C-506.76397694 558.47476152 -505.22594976 552.43859969 -503.68243879 546.40375 C-500.75618325 534.96258424 -497.84670581 523.51720159 -494.95014763 512.06848335 C-493.99898872 508.32118691 -493.03835099 504.57641247 -492.07679749 500.83177185 C-491.49006111 498.52262008 -490.90365359 496.21338472 -490.31762695 493.90405273 C-490.05005081 492.87260132 -489.78247467 491.8411499 -489.50679016 490.77844238 C-486.27487111 479.73293151 -486.27487111 479.73293151 -488.24511719 469.00195312 C-489.08558594 468.04675781 -489.92605469 467.0915625 -490.79199219 466.10742188 C-491.72886911 464.99319923 -492.66369066 463.87724581 -493.59667969 462.75976562 C-494.08491211 462.19112793 -494.57314453 461.62249023 -495.07617188 461.03662109 C-529.4573463 420.18463935 -550.53185049 367.30101648 -560.54199219 315.29492188 C-560.98536552 313.10152791 -561.42919971 310.90823398 -561.875 308.71533203 C-565.14104852 290.73676754 -565.89313042 272.6791538 -565.85766602 254.43994141 C-565.85450801 251.06184485 -565.87807486 247.68462989 -565.90332031 244.30664062 C-565.9599723 224.82940612 -564.14409293 205.60245242 -560.35449219 186.48242188 C-560.14655029 185.42732422 -559.9386084 184.37222656 -559.72436523 183.28515625 C-548.24623883 127.40167 -522.27044067 75.03511328 -484.54199219 32.29492188 C-483.88618164 31.55153564 -483.23037109 30.80814941 -482.5546875 30.04223633 C-470.84349651 16.89217587 -458.52189341 4.04235698 -444.54199219 -6.70507812 C-443.47745231 -7.58908992 -442.41649136 -8.4774224 -441.35839844 -9.36914062 C-425.24349535 -22.8328531 -407.2097232 -34.12694527 -388.54199219 -43.70507812 C-387.56311035 -44.20749023 -386.58422852 -44.70990234 -385.57568359 -45.22753906 C-293.89316772 -91.78888997 -183.62025483 -95.85780373 0 0 Z M-405.54199219 29.29492188 C-406.54230469 30.08382812 -407.54261719 30.87273437 -408.57324219 31.68554688 C-415.89169096 37.53189388 -422.74259286 43.86079927 -429.54199219 50.29492188 C-430.22261719 50.93300781 -430.90324219 51.57109375 -431.60449219 52.22851562 C-435.8231934 56.30073415 -439.47856505 60.77522111 -443.13574219 65.35351562 C-445.02417056 67.66193537 -446.95102323 69.89271653 -448.93261719 72.11914062 C-469.86718378 95.94287956 -485.76143826 125.62932575 -496.54199219 155.29492188 C-496.84443848 156.1107373 -497.14688477 156.92655273 -497.45849609 157.76708984 C-501.29450389 168.21126039 -504.31304985 178.76107413 -506.79199219 189.60742188 C-507.02611816 190.61232666 -507.26024414 191.61723145 -507.50146484 192.65258789 C-511.55949306 211.30351828 -513.04854173 230.0935505 -512.93310547 249.14941406 C-512.91699327 252.29471147 -512.93309514 255.4387247 -512.95214844 258.58398438 C-512.97162803 277.06867685 -511.22216504 295.40987944 -507.22949219 313.48242188 C-507.01639404 314.4654126 -506.8032959 315.44840332 -506.58374023 316.46118164 C-501.07946576 341.24137354 -492.58586599 364.91651885 -480.54199219 387.29492188 C-480.16606934 388.00664551 -479.79014648 388.71836914 -479.40283203 389.45166016 C-471.49058684 404.39845163 -462.4233376 418.32646552 -451.54199219 431.29492188 C-450.64478166 432.378193 -449.74765146 433.46153066 -448.85058594 434.54492188 C-442.96921525 441.60732193 -442.96921525 441.60732193 -436.60449219 448.23242188 C-432.00044512 452.79219926 -429.31957989 455.9885707 -429.23730469 462.68554688 C-429.33968267 469.60931249 -430.92847204 475.74134315 -432.85449219 482.35742188 C-433.38953038 484.28420592 -433.92444343 486.21102685 -434.45603943 488.13876343 C-434.84139366 489.53491345 -435.2284516 490.93059419 -435.61708069 492.32583618 C-438.12048678 501.32237995 -440.50095432 510.35084349 -442.84677124 519.38961792 C-443.35015492 521.31972505 -443.85844473 523.24855957 -444.37173462 525.17605591 C-445.09721957 527.90038785 -445.80754961 530.6282688 -446.51464844 533.35742188 C-446.73505798 534.17186264 -446.95546753 534.98630341 -447.18255615 535.82542419 C-448.32618305 540.31574766 -448.8048513 543.70693639 -447.54199219 548.29492188 C-447.21199219 548.62492188 -446.88199219 548.95492187 -446.54199219 549.29492188 C-440.72267759 548.89678298 -436.14921465 547.05001323 -430.90136719 544.60351562 C-430.07296829 544.22613754 -429.2445694 543.84875946 -428.3910675 543.45994568 C-425.68742539 542.22587064 -422.98978554 540.97922388 -420.29199219 539.73242188 C-418.42055438 538.87561607 -416.5487238 538.01966767 -414.67651367 537.16455078 C-409.89507583 534.97838186 -405.11832631 532.7821693 -400.3427124 530.58331299 C-393.53203178 527.45025445 -386.7127477 524.33595202 -379.89489746 521.21853638 C-377.63592504 520.18431276 -375.37834363 519.14710783 -373.12109375 518.10913086 C-372.42501511 517.78969009 -371.72893646 517.47024933 -371.01176453 517.14112854 C-369.15040139 516.2869093 -367.28965381 515.4313491 -365.42895508 514.57568359 C-359.88431215 512.11587837 -354.95087856 511.14944794 -349.12402344 513.10742188 C-346.3982561 514.27620419 -343.72033255 515.52125396 -341.04199219 516.79492188 C-313.47012987 529.2999135 -284.50637377 536.45426984 -254.54199219 540.29492188 C-253.76243164 540.39949707 -252.98287109 540.50407227 -252.1796875 540.61181641 C-179.77904788 549.19729743 -105.36339493 524.28274467 -48.59277344 479.99414062 C-31.91441779 466.59911319 -15.49406616 451.35317872 -2.54199219 434.29492188 C-1.61528743 433.10842818 -0.68817564 431.92225232 0.23925781 430.73632812 C33.00371224 388.40221651 53.13887069 338.37467701 59.45800781 285.29492188 C59.58300407 284.32810989 59.58300407 284.32810989 59.71052551 283.34176636 C60.39892242 277.7205185 60.61856727 272.18945899 60.62597656 266.52929688 C60.62930496 265.61521057 60.63263336 264.70112427 60.63606262 263.75933838 C60.64109847 261.82979835 60.64347199 259.90024972 60.64331055 257.97070312 C60.64547077 255.09424436 60.66358952 252.21818668 60.68261719 249.34179688 C60.73593913 232.23518319 59.64301254 215.28360189 56.27050781 198.48242188 C56.05692627 197.40259033 55.84334473 196.32275879 55.62329102 195.21020508 C42.20018928 129.86477576 4.08698886 65.64630653 -50.54199219 26.29492188 C-51.70333108 25.40884614 -52.86210946 24.51940629 -54.01855469 23.62695312 C-64.01252255 15.98895714 -74.6351453 9.53909725 -85.54199219 3.29492188 C-86.2398584 2.89031738 -86.93772461 2.48571289 -87.65673828 2.06884766 C-172.13257855 -46.51978257 -277.4204594 -42.60311428 -405.54199219 29.29492188 Z " fill="#070707" transform="translate(738.5419921875,211.705078125)"/>
<path d="M0 0 C1.55308682 0.55036572 3.09736585 1.12662087 4.62890625 1.734375 C6.54554963 2.5446901 6.54554963 2.5446901 8.4765625 1.29296875 C10.36717312 1.11796534 12.2659089 1.02571959 14.1640625 0.98046875 C15.17855469 0.94308594 16.19304687 0.90570313 17.23828125 0.8671875 C24.37830149 1.80598389 28.79972961 6.18488065 33.3515625 11.35546875 C33.86912109 11.92910156 34.38667969 12.50273437 34.91992188 13.09375 C38.80363937 17.43352827 42.47911791 21.92796957 46.125 26.46875 C49.81856553 30.90470993 53.77195821 35.09154827 57.70703125 39.3125 C60.37388854 42.17347245 62.97666803 45.08113458 65.53125 48.04296875 C67.10805493 49.86674313 68.69840754 51.67578119 70.296875 53.48046875 C81.44382873 66.12398039 92.10285477 79.26764665 101.4765625 93.29296875 C102.06824219 92.73867188 102.65992188 92.184375 103.26953125 91.61328125 C104.45482422 90.52660156 104.45482422 90.52660156 105.6640625 89.41796875 C106.44136719 88.69867188 107.21867188 87.979375 108.01953125 87.23828125 C112.20020292 83.9283059 115.99255779 82.8182635 121.35546875 82.98046875 C126.51712428 83.74093365 130.22939372 85.85270462 133.62109375 89.76953125 C136.1070066 94.49014891 136.42624986 98.78543257 136.9140625 104.04296875 C139.46856519 126.57841108 147.66024094 146.31720624 157.29498291 166.70227051 C162.18515445 177.05958445 166.86349864 187.1009418 169.4765625 198.29296875 C169.63302246 198.9365332 169.78948242 199.58009766 169.95068359 200.24316406 C174.20552184 218.39072698 173.14839164 237.62375049 171.7109375 256.078125 C170.21116555 276.64999697 172.99079999 297.91093509 186.4765625 314.29296875 C187.10433594 315.06511719 187.73210937 315.83726562 188.37890625 316.6328125 C190.34664343 318.58416603 190.34664343 318.58416603 192.8671875 318.0625 C193.72828125 317.80855469 194.589375 317.55460937 195.4765625 317.29296875 C216.70860451 315.48409366 232.67024793 332.67940109 248.13671875 345.28515625 C248.90886719 345.94773437 249.68101562 346.6103125 250.4765625 347.29296875 C251.23839844 347.93492187 252.00023437 348.576875 252.78515625 349.23828125 C254.4765625 351.29296875 254.4765625 351.29296875 254.7265625 354.04296875 C254.6440625 354.78546875 254.5615625 355.52796875 254.4765625 356.29296875 C253.52136719 356.57269531 252.56617188 356.85242188 251.58203125 357.140625 C238.24177117 361.20800984 228.55899994 367.61062804 218.4765625 377.29296875 C217.25839844 378.41638672 217.25839844 378.41638672 216.015625 379.5625 C202.11435172 392.78405802 192.9245012 409.36190539 183.87890625 426.08203125 C175.06961826 442.3256886 165.12130126 459.62889272 146.60546875 465.9296875 C127.3234493 469.22001376 111.34188626 461.38037998 96.015625 450.5546875 C93.49344256 448.5626781 91.70821408 447.01870133 90.71582031 443.90966797 C90.44509498 440.9488168 90.88190532 439.40137538 92.0234375 436.67578125 C92.3740625 435.82113281 92.7246875 434.96648437 93.0859375 434.0859375 C93.65054688 432.76529297 93.65054688 432.76529297 94.2265625 431.41796875 C94.5875 430.54527344 94.9484375 429.67257812 95.3203125 428.7734375 C96.35787728 426.27350786 97.41294686 423.78191132 98.4765625 421.29296875 C98.78529297 420.56948242 99.09402344 419.84599609 99.41210938 419.10058594 C100.09804977 417.4970994 100.78691758 415.8948655 101.4765625 414.29296875 C100.93128906 413.69871094 100.38601563 413.10445312 99.82421875 412.4921875 C94.79945632 406.96924349 90.02409046 401.32592114 85.421875 395.4453125 C83.58188084 393.05486562 83.58188084 393.05486562 80.4765625 392.29296875 C80.15494141 392.93210205 79.83332031 393.57123535 79.50195312 394.22973633 C67.52966829 417.90744873 67.52966829 417.90744873 60.4765625 426.29296875 C59.81785156 427.11152344 59.15914062 427.93007813 58.48046875 428.7734375 C45.41949058 444.23092543 26.79576928 456.56111955 6.28662109 458.5 C-14.74358112 459.76824394 -32.66398599 454.04209002 -48.5234375 440.29296875 C-61.13248677 429.07185588 -67.65450728 409.14174013 -68.76171875 392.76953125 C-69.19672489 370.19500216 -61.05506666 353.43891858 -45.5234375 337.29296875 C-44.8619873 336.6892041 -44.20053711 336.08543945 -43.51904297 335.46337891 C-39.76663396 332.32310569 -39.76663396 332.32310569 -38.35546875 327.94140625 C-38.74089844 327.06742188 -39.12632812 326.1934375 -39.5234375 325.29296875 C-40.07122914 323.86934133 -40.61650818 322.44474614 -41.16015625 321.01953125 C-41.48693359 320.20846924 -41.81371094 319.39740723 -42.15039062 318.56176758 C-50.08781524 298.77484972 -54.11787555 278.52016257 -57.97454834 257.63684082 C-60.7053093 242.90586462 -64.01635559 228.59691286 -68.5234375 214.29296875 C-68.81025391 213.3690332 -69.09707031 212.44509766 -69.39257812 211.49316406 C-70.69222049 207.30819831 -72.00855141 203.12966381 -73.359375 198.9609375 C-82.3884923 170.5101283 -70.26439826 138.12020724 -60.0612793 111.5090332 C-57.87275021 105.64891475 -56.34909032 99.7619257 -54.9609375 93.66796875 C-53.07652691 85.46224566 -50.56341918 79.33295043 -44.5234375 73.29296875 C-44.04820531 70.94076815 -44.04820531 70.94076815 -43.84765625 68.19921875 C-43.74130859 67.16796875 -43.63496094 66.13671875 -43.52539062 65.07421875 C-43.31882773 62.91877985 -43.12064678 60.76251806 -42.93164062 58.60546875 C-42.04714442 50.24672096 -40.00019728 42.17135006 -33.6484375 36.23046875 C-30.16318147 34.06961001 -27.58767188 33.53682281 -23.5234375 33.29296875 C-23.8534375 32.63296875 -24.1834375 31.97296875 -24.5234375 31.29296875 C-25.76093801 12.42615775 -25.76093801 12.42615775 -20.5234375 6.29296875 C-14.26143413 -0.01087429 -8.91209303 -2.49704155 0 0 Z " fill="#080808" transform="translate(443.5234375,234.70703125)"/>
<path d="M0 0 C3.85224006 4.01501077 5.57682248 8.41578697 7.5625 13.5 C16.68125095 35.86642029 29.14570384 56.52749522 43.1875 76.125 C54.35228749 91.86763933 61.77449575 108.680127 68.828125 126.55712891 C71.63659 133.62623135 74.61561544 140.50888273 78.1796875 147.234375 C78.50107697 147.84331604 78.82246643 148.45225708 79.15359497 149.07965088 C81.12068041 152.69145468 83.20639131 155.97376419 86 159 C89.13863704 159.88593998 89.13863704 159.88593998 92 160 C91.59976006 151.06464339 88.51904871 143.12993264 85.5 134.8125 C84.9512478 133.28380396 84.40258319 131.75507647 83.85400391 130.22631836 C75.63513431 107.43540659 67.02106824 85.25562183 52.67480469 65.546875 C38.78374345 46.41240236 26.01110768 25.30941381 18 3 C18.66 3 19.32 3 20 3 C21.3327188 4.46690559 22.58913869 6.00322501 23.8125 7.5625 C27.58032724 12.26774815 31.42515896 16.88384675 35.375 21.4375 C35.92808838 22.07534424 36.48117676 22.71318848 37.05102539 23.37036133 C40.55448529 27.39043224 44.12412262 31.34031922 47.75 35.25 C51.89651099 39.73756601 55.81169224 44.34707964 59.6328125 49.11328125 C61.32423681 51.17592574 63.03017459 53.18020192 64.8046875 55.16796875 C81.39440021 73.81335733 91.74158116 93.93241894 100.64599609 117.06396484 C107.0913175 133.63036846 114.08385453 150.80901089 125 165 C126.00546875 166.32257813 126.00546875 166.32257813 127.03125 167.671875 C128.96521056 170.17697862 128.96521056 170.17697862 132 172 C133.32 172 134.64 172 136 172 C135.31050218 167.27317378 133.53059383 163.2148929 131.6484375 158.8671875 C131.31131744 158.07587433 130.97419739 157.28456116 130.62686157 156.4692688 C129.19459213 153.10785207 127.75142712 149.75114576 126.30908203 146.39404297 C107.35931251 102.20714403 107.35931251 102.20714403 112.01171875 90.44140625 C114.06635845 87.07870764 115.68150562 85.21232959 119 83 C119.99 83 120.98 83 122 83 C122.07476563 83.83917969 122.14953125 84.67835938 122.2265625 85.54296875 C124.98788762 110.80097209 134.69758055 136.064139 145.375 158.9375 C155.35517224 180.33445649 158.47389514 201.92048125 156.5 225.375 C155.93419786 232.43522667 155.85099057 239.48119733 155.8125 246.5625 C155.79960938 247.68640137 155.78671875 248.81030273 155.7734375 249.96826172 C155.76088963 260.72335184 157.10258679 271.18374366 160.1875 281.5 C160.39818115 282.20995117 160.6088623 282.91990234 160.82592773 283.65136719 C163.3293807 291.64305593 166.91926524 299.19662376 172.21484375 305.734375 C174 308 174 308 174 310 C172.44101062 311.08857866 170.82399356 312.09433668 169.1875 313.0625 C144.11203367 328.64648547 126.71238115 353.02145421 112.0859375 378.15234375 C111.11534319 379.80375061 110.06253658 381.40619513 109 383 C106.97765714 380.83472464 104.95671657 378.66818867 102.9375 376.5 C102.33550781 375.85361572 101.73351562 375.20723145 101.11328125 374.54125977 C98.18368579 371.38615838 95.28667763 368.22053242 92.5 364.9375 C83.80807648 355.00085927 74.68701263 346.78551117 63.96020508 339.10009766 C57.12063695 334.17648856 51.02960102 328.88625241 45 323 C44.14277344 322.20464844 43.28554688 321.40929687 42.40234375 320.58984375 C11.19295068 290.92403735 3.06713019 246.92235481 -5.23117065 206.56826782 C-11.80903125 174.5819124 -19.80252227 143.18748596 -28.65942383 111.75756836 C-28.93209076 110.78557999 -29.20475769 109.81359161 -29.48568726 108.81214905 C-29.99428267 107.00048007 -30.50585226 105.18964195 -31.02114868 103.37986755 C-35.27471527 88.20713507 -35.27471527 88.20713507 -35.3125 80.625 C-35.32925781 79.83351563 -35.34601563 79.04203125 -35.36328125 78.2265625 C-34.91507831 75.47951221 -33.80033639 74.08059984 -32 72 C-27.29139787 72.75747078 -25.64770679 75.1551861 -22.91015625 78.875 C-13.48836025 94.28898119 -8.45155495 113.0191945 -2.30999756 129.89611816 C4.87824235 149.72459726 4.87824235 149.72459726 12.375 169.4375 C12.67229004 170.21730225 12.96958008 170.99710449 13.27587891 171.80053711 C15.25457308 176.77938341 17.6182728 180.82542766 21 185 C23.66461093 186.03872687 23.66461093 186.03872687 26 186 C26.38296097 179.68984763 24.99743127 174.35294882 23.25 168.3125 C22.79016724 166.70290405 22.79016724 166.70290405 22.32104492 165.06079102 C16.19419524 144.0327101 9.07673024 123.26555963 1.49887085 102.7192688 C1.01148418 101.39693528 0.5271299 100.07347881 0.04629517 98.74874878 C-4.44093907 86.43416758 -9.81046865 74.16459467 -18.3125 64.0625 C-23.79760788 57.26283086 -27.60053541 50.02471263 -27 41 C-25.28907262 37.75513772 -23.57430793 35.57430793 -21 33 C-17.875 32.875 -17.875 32.875 -15 33 C-13.89273493 35.18597603 -12.78868535 37.37345958 -11.6875 39.5625 C-11.33067139 40.27140381 -10.97384277 40.98030762 -10.60620117 41.71069336 C-8.50685208 45.90715391 -6.46114472 50.12297557 -4.4765625 54.375 C2.67660483 69.67549466 10.63988626 84.39744093 19.3203125 98.88671875 C27.16295254 112.12694047 32.41354183 126.21149445 37.5 140.6875 C40.09499667 148.04398917 42.78632985 155.25368547 46.25 162.25 C46.55486328 162.87479248 46.85972656 163.49958496 47.17382812 164.14331055 C49.26865288 168.19100514 51.68403536 170.95846002 55 174 C55.99 173.67 56.98 173.34 58 173 C58.43139105 166.58132314 56.86007008 161.26092157 54.96484375 155.16015625 C54.64850479 154.12040146 54.33216583 153.08064667 54.00624084 152.00938416 C53.33424828 149.81003754 52.65733287 147.61218982 51.97583008 145.41577148 C50.95186192 142.10888161 49.94845957 138.79626761 48.94726562 135.48242188 C43.04119686 116.15000533 35.25061812 98.62690845 25.19921875 81.10546875 C18.55924288 69.51615377 12.22484251 57.81824776 6.125 45.9375 C5.77059845 45.24738831 5.4161969 44.55727661 5.05105591 43.84625244 C3.01741725 39.8810321 0.99494926 35.91029537 -1.01843262 31.93475342 C-2.01774304 29.96502696 -3.02295086 27.99837778 -4.02832031 26.03173828 C-4.66760328 24.77260589 -5.30661249 23.51333445 -5.9453125 22.25390625 C-6.51008301 21.14474854 -7.07485352 20.03559082 -7.65673828 18.89282227 C-9.86973895 14.12694713 -10.37068204 10.28221902 -10 5 C-7.51970615 -0.18606897 -5.65742513 -1.88580838 0 0 Z " fill="#F9F8F8" transform="translate(444,251)"/>
<path d="M0 0 C0.66 0 1.32 0 2 0 C3.19207036 3.76326466 4.34877173 7.53656016 5.5 11.3125 C5.83386719 12.36501953 6.16773438 13.41753906 6.51171875 14.50195312 C9.53574827 24.53062245 9.4357793 33.41391702 8 43.6875 C7.2449715 49.18186281 6.90031717 54.44891258 7 60 C7.88751953 60.01740234 7.88751953 60.01740234 8.79296875 60.03515625 C11.78367942 61.34259967 12.32528594 63.23466482 13.48608398 66.17041016 C13.75880127 66.9185498 14.03151855 67.66668945 14.3125 68.4375 C14.60519775 69.2114209 14.89789551 69.9853418 15.19946289 70.78271484 C19.26433077 81.93595968 22.09171076 93.50310648 25 105 C25.99 105 26.98 105 28 105 C28.17539307 105.83845459 28.35078613 106.67690918 28.53149414 107.54077148 C37.69112632 151.05421686 48.32518282 192.22821946 80 225 C80.80050781 225.85207031 81.60101563 226.70414063 82.42578125 227.58203125 C87.71489651 233.07890227 93.37058064 237.82925201 99.44262695 242.42211914 C103.90538893 245.81077786 103.90538893 245.81077786 105 248 C93.76861504 263.59914577 82.70461254 275.14624574 63 279 C53.14553231 280.22658155 44.12805125 277.55685399 36.1015625 271.78515625 C28.88891533 265.65842808 23.67766833 257.45955108 22.80908203 247.8984375 C22.10723717 234.33914425 22.10723717 234.33914425 25 230 C25.4846875 230.53109375 25.969375 231.0621875 26.46875 231.609375 C31.87601449 237.30779989 38.03744022 242.55176561 46.234375 243.16796875 C51.57603634 243.20944128 55.94937577 242.75673886 61 241 C61 240.01 61 239.02 61 238 C60.10539062 237.59910156 59.21078125 237.19820312 58.2890625 236.78515625 C35.98433555 226.44519611 24.67588855 206.22254326 16.25 183.875 C11.06481311 169.38894929 7.97762412 154.32231718 5.12890625 139.234375 C4.96636856 138.37396606 4.80383087 137.51355713 4.6363678 136.6270752 C4.47172531 135.75498413 4.30708282 134.88289307 4.13745117 133.984375 C3.80005969 132.19789924 3.46257549 130.41144099 3.125 128.625 C2.87431259 127.2961377 2.87431259 127.2961377 2.61856079 125.94042969 C-0.29724573 110.58659313 -4.2274146 95.88815181 -9 81 C-17.63460652 53.49866371 -9.25731351 26.35379889 0 0 Z " fill="#F9F8F8" transform="translate(397,358)"/>
<path d="M0 0 C0.33 0 0.66 0 1 0 C2.16886581 7.43398654 2.18364055 14.79814257 2.1875 22.3125 C2.19974609 23.58673828 2.21199219 24.86097656 2.22460938 26.17382812 C2.22654297 27.39134766 2.22847656 28.60886719 2.23046875 29.86328125 C2.23457764 30.96969971 2.23868652 32.07611816 2.24291992 33.21606445 C2 36 2 36 0 39 C-1.75134914 37.24865086 -1.12830365 34.96031697 -1.13894653 32.62734985 C-1.1369223 31.87634003 -1.13489807 31.1253302 -1.1328125 30.3515625 C-1.13376923 29.5832309 -1.13472595 28.81489929 -1.13571167 28.02328491 C-1.13639357 26.39410317 -1.13453861 24.76491874 -1.13037109 23.13574219 C-1.12503747 20.64251576 -1.13030817 18.14947068 -1.13671875 15.65625 C-1.13605768 14.07552044 -1.13477593 12.49479098 -1.1328125 10.9140625 C-1.13483673 10.16710114 -1.13686096 9.42013977 -1.13894653 8.65054321 C-1.1246952 5.49808467 -1.00447933 3.013438 0 0 Z " fill="#111111" transform="translate(614,443)"/>
<path d="M0 0 C0.66 0 1.32 0 2 0 C3.60178593 1.78104718 5.13381926 3.62537278 6.625 5.5 C7.85089844 7.03140625 7.85089844 7.03140625 9.1015625 8.59375 C9.72804688 9.3878125 10.35453125 10.181875 11 11 C9.625 13 9.625 13 8 15 C7.34 15 6.68 15 6 15 C4.02 10.05 2.04 5.1 0 0 Z " fill="#EEEEEE" transform="translate(462,254)"/>
<path d="M0 0 C0.66 0.33 1.32 0.66 2 1 C2 7.27 2 13.54 2 20 C-1 17 -1 17 -1.328125 13.2421875 C-1.31751718 11.78626406 -1.29092476 10.3303868 -1.25 8.875 C-1.24484375 8.13378906 -1.2396875 7.39257812 -1.234375 6.62890625 C-1.15430775 1.15430775 -1.15430775 1.15430775 0 0 Z " fill="#0F0F0E" transform="translate(376,614)"/>
<path d="M0 0 C0.99 0.33 1.98 0.66 3 1 C3.94921875 4.0546875 3.94921875 4.0546875 4.6875 7.875 C5.06455078 9.75832031 5.06455078 9.75832031 5.44921875 11.6796875 C6 15 6 15 6 18 C5.01 17.67 4.02 17.34 3 17 C2.05078125 13.9453125 2.05078125 13.9453125 1.3125 10.125 C1.06113281 8.86945313 0.80976563 7.61390625 0.55078125 6.3203125 C0 3 0 3 0 0 Z " fill="#121211" transform="translate(437,457)"/>
<path d="M0 0 C0.76441406 0.00644531 1.52882813 0.01289063 2.31640625 0.01953125 C4.4375 0.1875 4.4375 0.1875 7.4375 1.1875 C7.1075 2.1775 6.7775 3.1675 6.4375 4.1875 C5.60605469 4.10371094 4.77460938 4.01992187 3.91796875 3.93359375 C2.28794922 3.78083984 2.28794922 3.78083984 0.625 3.625 C-0.45394531 3.52058594 -1.53289062 3.41617188 -2.64453125 3.30859375 C-5.62732454 3.01172391 -5.62732454 3.01172391 -8.5625 4.1875 C-8.5625 3.5275 -8.5625 2.8675 -8.5625 2.1875 C-5.5723145 0.46422681 -3.44216022 -0.06406728 0 0 Z " fill="#0E0E0E" transform="translate(436.5625,233.8125)"/>
<path d="M0 0 C0.33 0.66 0.66 1.32 1 2 C0.43152344 2.04898438 -0.13695312 2.09796875 -0.72265625 2.1484375 C-5.70158938 2.63053787 -10.18683907 3.58436443 -15 5 C-16.32 5 -17.64 5 -19 5 C-19 4.34 -19 3.68 -19 3 C-16.21019334 2.30404181 -13.41859396 1.61793326 -10.625 0.9375 C-9.43390625 0.63875977 -9.43390625 0.63875977 -8.21875 0.33398438 C-2.2265625 -1.11328125 -2.2265625 -1.11328125 0 0 Z " fill="#0F100F" transform="translate(436,138)"/>
<path d="M0 0 C0.66 0 1.32 0 2 0 C2.6875 2.8125 2.6875 2.8125 3 6 C1.6875 7.5625 1.6875 7.5625 0 9 C-1.19027984 11.59915538 -1.19027984 11.59915538 -2 14 C-2.66 14 -3.32 14 -4 14 C-3.52188823 12.22888156 -3.0424722 10.45811517 -2.5625 8.6875 C-2.29566406 7.70136719 -2.02882813 6.71523438 -1.75390625 5.69921875 C-1.21920575 3.78482474 -0.62855462 1.88566385 0 0 Z " fill="#F1F1F1" transform="translate(397,358)"/>
<path d="M0 0 C0.33 0 0.66 0 1 0 C1.08710289 3.10398978 1.14042309 6.20766548 1.1875 9.3125 C1.21263672 10.19357422 1.23777344 11.07464844 1.26367188 11.98242188 C1.27333984 12.82998047 1.28300781 13.67753906 1.29296875 14.55078125 C1.3086792 15.33106689 1.32438965 16.11135254 1.34057617 16.9152832 C0.91847304 19.49903853 -0.01489942 20.36292167 -2 22 C-1.84660156 21.00871094 -1.69320312 20.01742188 -1.53515625 18.99609375 C-0.96829002 15.02803017 -0.68535452 11.06358009 -0.4375 7.0625 C-0.39431641 6.37865234 -0.35113281 5.69480469 -0.30664062 4.99023438 C-0.20196005 3.32697635 -0.10062406 1.66350837 0 0 Z " fill="#101010" transform="translate(602,453)"/>
<path d="M0 0 C0.44730469 0.44472656 0.89460937 0.88945312 1.35546875 1.34765625 C3.17670143 3.05239217 4.92770506 4.60847964 7 6 C9.85945818 6.05050452 9.85945818 6.05050452 12 5 C11.67 6.32 11.34 7.64 11 9 C6.16592748 8.58565093 4.10462326 6.62206046 1 3 C0.67 2.01 0.34 1.02 0 0 Z " fill="#151414" transform="translate(569,415)"/>
<path d="M0 0 C1.90389849 2.85584773 2.69462177 4.9311762 3.625 8.1875 C3.88539063 9.08855469 4.14578125 9.98960937 4.4140625 10.91796875 C4.60742188 11.60503906 4.80078125 12.29210937 5 13 C4.01 13 3.02 13 2 13 C2 11.35 2 9.7 2 8 C1.34 8 0.68 8 0 8 C-0.38063221 5.6739143 -0.71269945 3.33944736 -1 1 C-0.67 0.67 -0.34 0.34 0 0 Z " fill="#131313" transform="translate(454,377)"/>
<path d="M0 0 C0.33 0 0.66 0 1 0 C1.99 4.62 2.98 9.24 4 14 C3.01 13.67 2.02 13.34 1 13 C0.234375 11.07421875 0.234375 11.07421875 -0.25 8.6875 C-0.42015625 7.90761719 -0.5903125 7.12773438 -0.765625 6.32421875 C-1.00771617 3.92348133 -0.7310448 2.28190412 0 0 Z " fill="#111111" transform="translate(615,516)"/>
<path d="M0 0 C2.00293347 3.00440021 2.49271626 4.70993945 3.125 8.1875 C3.29257812 9.08855469 3.46015625 9.98960937 3.6328125 10.91796875 C3.75398438 11.60503906 3.87515625 12.29210937 4 13 C3.34 13 2.68 13 2 13 C-1.62870159 4.738041 -1.62870159 4.738041 0 0 Z " fill="#141414" transform="translate(425,398)"/>
<path d="M0 0 C0.66 0.33 1.32 0.66 2 1 C-3.14285714 6.57142857 -3.14285714 6.57142857 -7 7 C-4.66666667 4.66666667 -2.33333333 2.33333333 0 0 Z M-11 9 C-10.34 9.33 -9.68 9.66 -9 10 C-9.99 10 -10.98 10 -12 10 C-11.67 9.67 -11.34 9.34 -11 9 Z " fill="#121212" transform="translate(301,199)"/>
<path d="M0 0 C0.66 0 1.32 0 2 0 C2.99 3.96 3.98 7.92 5 12 C0.22804692 7.22804692 0.41863411 6.27951163 0 0 Z " fill="#131313" transform="translate(836,364)"/>
<path d="M0 0 C1.75 0.0625 1.75 0.0625 4 1 C5.59501537 3.24164322 6.74543018 5.53566643 8 8 C7.01 8.33 6.02 8.66 5 9 C1.125 2.25 1.125 2.25 0 0 Z " fill="#121211" transform="translate(302,662)"/>
<path d="M0 0 C4.10958767 1.45044271 7.43258745 3.51110752 11 6 C7.25 7.125 7.25 7.125 5 6 C5 5.34 5 4.68 5 4 C2.525 3.01 2.525 3.01 0 2 C0 1.34 0 0.68 0 0 Z " fill="#0E0E0E" transform="translate(699,183)"/>
<path d="M0 0 C0.66 0.33 1.32 0.66 2 1 C1.67 3.64 1.34 6.28 1 9 C0.01 8.67 -0.98 8.34 -2 8 C-1.125 1.125 -1.125 1.125 0 0 Z " fill="#151515" transform="translate(378,604)"/>
<path d="M0 0 C0.66 0 1.32 0 2 0 C2.66 3.63 3.32 7.26 4 11 C0.02040816 7.02040816 0.02040816 7.02040816 -0.0625 2.875 C-0.041875 1.92625 -0.02125 0.9775 0 0 Z " fill="#151515" transform="translate(403,507)"/>
<path d="M0 0 C0.66 0 1.32 0 2 0 C2.33 3.3 2.66 6.6 3 10 C2.01 9.34 1.02 8.68 0 8 C-0.40843923 5.28796348 -0.13336867 2.7562858 0 0 Z " fill="#10100F" transform="translate(398,480)"/>
<path d="M0 0 C2.26440734 4.52881469 2.090125 6.18528124 1 11 C0.01 11.495 0.01 11.495 -1 12 C-0.67 8.04 -0.34 4.08 0 0 Z " fill="#F2F1F1" transform="translate(616,472)"/>
<path d="M0 0 C0.66 0 1.32 0 2 0 C2.66 3.63 3.32 7.26 4 11 C3.01 10.67 2.02 10.34 1 10 C0.67 6.7 0.34 3.4 0 0 Z " fill="#111111" transform="translate(610,429)"/>
<path d="M0 0 C0.66 0.33 1.32 0.66 2 1 C1.67 3.64 1.34 6.28 1 9 C0.01 9.33 -0.98 9.66 -2 10 C-1.34 6.7 -0.68 3.4 0 0 Z " fill="#141414" transform="translate(391,319)"/>
<path d="M0 0 C0 0.66 0 1.32 0 2 C-4.455 2.495 -4.455 2.495 -9 3 C-8.67 2.01 -8.34 1.02 -8 0 C-4.71303767 -0.79953138 -3.28976808 -1.09658936 0 0 Z " fill="#141515" transform="translate(451,135)"/>
<path d="M0 0 C0.99 0.33 1.98 0.66 3 1 C3.144375 1.763125 3.28875 2.52625 3.4375 3.3125 C3.9632594 6.08172908 3.9632594 6.08172908 5 9 C4.01 9 3.02 9 2 9 C1.34 6.03 0.68 3.06 0 0 Z " fill="#111111" transform="translate(446,392)"/>
<path d="M0 0 C3.625 0.375 3.625 0.375 7 1 C6.67 1.99 6.34 2.98 6 4 C3.36 3.34 0.72 2.68 -2 2 C-1.34 1.34 -0.68 0.68 0 0 Z " fill="#0E0E0E" transform="translate(613,144)"/>
<path d="M0 0 C0.99 0 1.98 0 3 0 C2.67 0.99 2.34 1.98 2 3 C1.34 3 0.68 3 0 3 C0.33 3.99 0.66 4.98 1 6 C0.34 6 -0.32 6 -1 6 C-1.33 6.99 -1.66 7.98 -2 9 C-2.33 8.34 -2.66 7.68 -3 7 C-2.06421005 4.64018187 -1.06652192 2.30368736 0 0 Z " fill="#ECECEB" transform="translate(828,590)"/>
<path d="M0 0 C1.88343932 3.76687864 2.22057835 5.02958963 2 9 C1.01 9 0.02 9 -1 9 C-0.67 6.03 -0.34 3.06 0 0 Z " fill="#1D1D1D" transform="translate(179,394)"/>
<path d="M0 0 C0.66 0.66 1.32 1.32 2 2 C0.906875 1.979375 -0.18625 1.95875 -1.3125 1.9375 C-4.94384191 1.81455548 -4.94384191 1.81455548 -8 3 C-8 2.34 -8 1.68 -8 1 C-3.375 -1.125 -3.375 -1.125 0 0 Z " fill="#131313" transform="translate(562,319)"/>
<path d="M0 0 C2.625 -0.1875 2.625 -0.1875 5 0 C5.33 0.66 5.66 1.32 6 2 C3.29120665 3.35439668 0.99066732 3.06501451 -2 3 C-1.34 2.01 -0.68 1.02 0 0 Z " fill="#0E0E0E" transform="translate(471,179)"/>
<path d="M0 0 C0 0.99 0 1.98 0 3 C-2.31 3 -4.62 3 -7 3 C-7 2.34 -7 1.68 -7 1 C-4.53721199 -0.231394 -2.7204945 -0.07159196 0 0 Z " fill="#101011" transform="translate(483,130)"/>
<path d="M0 0 C0.625 1.8125 0.625 1.8125 1 4 C0.01 5.485 0.01 5.485 -1 7 C-1.66 7 -2.32 7 -3 7 C-2.625 4.0625 -2.625 4.0625 -2 1 C-1.34 0.67 -0.68 0.34 0 0 Z " fill="#0F0E0F" transform="translate(228,793)"/>
<path d="M0 0 C2.31 0.66 4.62 1.32 7 2 C7 2.66 7 3.32 7 4 C5.35 4 3.7 4 2 4 C1.34 2.68 0.68 1.36 0 0 Z " fill="#101011" transform="translate(401,730)"/>
<path d="M0 0 C3.875 4.75 3.875 4.75 5 7 C4.01 7.33 3.02 7.66 2 8 C1.01 5.69 0.02 3.38 -1 1 C-0.67 0.67 -0.34 0.34 0 0 Z " fill="#0E0E0D" transform="translate(797,279)"/>
<path d="M0 0 C4.75 1.875 4.75 1.875 7 3 C7 3.66 7 4.32 7 5 C4.69 4.34 2.38 3.68 0 3 C0 2.01 0 1.02 0 0 Z " fill="#131312" transform="translate(691,178)"/>
</svg>
