<svg id="svg" version="1.1" xmlns="http://www.w3.org/2000/svg" xmlns:xlink="http://www.w3.org/1999/xlink" width="400" height="400" viewBox="0, 0, 400,400"><g id="svgg"><path id="path0" d="M184.056 20.665 C 181.710 21.475,179.631 23.279,178.384 25.586 L 177.539 27.148 177.435 74.268 L 177.332 121.387 136.029 121.662 C 93.010 121.947,93.071 121.945,90.228 123.749 C 86.842 125.899,86.155 127.889,86.004 135.984 L 85.876 142.866 83.593 143.073 C 71.572 144.163,61.870 136.163,55.446 119.863 L 54.666 117.884 56.180 116.242 C 69.768 101.501,52.931 78.916,34.904 87.704 C 18.209 95.843,23.865 121.088,42.526 121.729 L 46.186 121.855 48.041 126.119 C 55.560 143.401,65.855 151.676,80.535 152.238 L 85.876 152.442 86.114 155.811 C 86.522 161.562,87.899 164.176,91.546 166.127 L 93.164 166.992 114.648 166.927 L 136.133 166.862 139.234 173.372 C 140.939 176.953,143.953 183.246,145.931 187.356 L 149.527 194.829 144.783 192.573 C 130.364 185.714,119.500 184.011,107.919 186.792 L 103.924 187.751 102.646 186.432 C 88.472 171.806,64.576 188.974,73.623 207.283 C 82.078 224.393,109.261 217.218,107.754 198.274 C 107.611 196.478,107.621 196.461,109.057 196.074 C 120.612 192.963,128.306 194.596,147.325 204.198 L 156.173 208.665 166.661 230.407 L 177.148 252.148 177.344 312.500 L 177.539 372.852 178.390 374.441 C 181.160 379.617,182.929 380.078,200.000 380.078 C 217.071 380.078,218.840 379.617,221.610 374.441 L 222.461 372.852 222.656 313.086 L 222.852 253.320 233.398 231.295 C 243.367 210.477,244.029 209.216,245.479 208.297 C 251.453 204.511,267.511 197.234,273.242 195.715 C 277.226 194.660,284.204 194.612,289.063 195.608 L 292.383 196.289 292.644 199.805 C 294.372 223.085,328.507 222.529,328.588 199.219 C 328.644 183.254,309.126 174.820,298.121 186.054 L 296.438 187.772 293.520 187.077 C 280.376 183.945,271.045 185.352,255.017 192.881 L 250.854 194.837 253.290 189.704 C 254.630 186.880,257.713 180.403,260.141 175.309 L 264.555 166.047 285.695 165.934 C 309.162 165.808,307.886 165.949,310.874 163.140 C 313.013 161.128,313.790 159.211,313.981 155.469 L 314.151 152.148 319.087 152.124 C 333.608 152.051,344.407 143.489,351.995 126.032 L 353.887 121.680 357.705 121.436 C 378.449 120.115,381.546 91.435,361.523 86.079 C 344.503 81.525,331.596 102.800,343.596 115.628 L 345.445 117.605 344.535 119.838 C 337.967 135.961,329.971 142.969,318.142 142.969 L 314.182 142.969 313.960 135.613 C 313.667 125.930,312.632 123.595,307.689 121.468 L 305.723 120.623 264.196 120.913 L 222.669 121.202 222.565 74.175 L 222.461 27.148 221.610 25.559 C 220.377 23.254,217.956 21.236,215.577 20.530 C 212.291 19.554,186.959 19.662,184.056 20.665 M360.092 95.389 C 366.242 97.262,367.623 105.876,362.479 110.279 C 354.509 117.101,343.444 106.041,350.265 98.071 C 352.960 94.923,355.915 94.117,360.092 95.389 M47.531 96.330 C 55.110 101.016,51.870 112.500,42.969 112.500 C 36.321 112.500,32.172 105.521,35.349 99.683 C 37.828 95.128,43.197 93.650,47.531 96.330 M253.906 166.583 C 253.906 166.681,247.553 180.084,239.787 196.368 C 232.021 212.653,225.000 227.383,224.184 229.102 L 222.700 232.227 222.678 199.316 L 222.656 166.406 238.281 166.406 C 246.875 166.406,253.906 166.486,253.906 166.583 M177.317 198.926 L 177.290 231.055 175.609 227.539 C 174.685 225.605,167.827 211.367,160.369 195.898 C 152.912 180.430,146.718 167.554,146.605 167.285 C 146.444 166.899,149.646 166.797,161.872 166.797 L 177.344 166.797 177.317 198.926 M92.243 190.688 C 95.698 191.723,98.438 195.444,98.438 199.102 C 98.438 206.881,88.620 210.798,83.296 205.143 C 77.184 198.650,83.696 188.127,92.243 190.688 M314.063 191.048 C 316.231 192.032,317.435 193.127,318.387 194.984 C 322.335 202.682,314.255 210.724,306.594 206.721 C 296.804 201.607,304.007 186.490,314.063 191.048 " stroke="none" fill="#040404" fill-rule="evenodd"></path><path id="path1" d="" stroke="none" fill="#080404" fill-rule="evenodd"></path><path id="path2" d="" stroke="none" fill="#080404" fill-rule="evenodd"></path><path id="path3" d="" stroke="none" fill="#080404" fill-rule="evenodd"></path><path id="path4" d="" stroke="none" fill="#080404" fill-rule="evenodd"></path></g></svg>